<mxfile host="app.diagrams.net" modified="2021-01-08T06:08:44.245Z" agent="5.0 (Windows NT 10.0; Win64; x64) AppleWebKit/537.36 (KHTML, like Gecko) Chrome/87.0.4280.141 Safari/537.36" etag="fnfOgYv8Gisw4vIdZfOY" version="14.1.8" type="github">
  <diagram id="C5RBs43oDa-KdzZeNtuy" name="Page-1">
    <mxGraphModel dx="1422" dy="804" grid="1" gridSize="10" guides="1" tooltips="1" connect="1" arrows="1" fold="1" page="1" pageScale="1" pageWidth="827" pageHeight="1169" math="0" shadow="0">
      <root>
        <mxCell id="WIyWlLk6GJQsqaUBKTNV-0" />
        <mxCell id="WIyWlLk6GJQsqaUBKTNV-1" parent="WIyWlLk6GJQsqaUBKTNV-0" />
        <mxCell id="WIyWlLk6GJQsqaUBKTNV-2" value="" style="rounded=0;html=1;jettySize=auto;orthogonalLoop=1;fontSize=11;endArrow=block;endFill=0;endSize=8;strokeWidth=1;shadow=0;labelBackgroundColor=none;edgeStyle=orthogonalEdgeStyle;entryX=0.5;entryY=0;entryDx=0;entryDy=0;" parent="WIyWlLk6GJQsqaUBKTNV-1" source="WIyWlLk6GJQsqaUBKTNV-3" target="5eM2bL5UXYDsiVkOI-E2-2" edge="1">
          <mxGeometry relative="1" as="geometry">
            <mxPoint x="375" y="180" as="targetPoint" />
          </mxGeometry>
        </mxCell>
        <mxCell id="WIyWlLk6GJQsqaUBKTNV-3" value="Gather Corporate Disclosures on Worker Protection Policies" style="rounded=1;whiteSpace=wrap;html=1;fontSize=12;glass=0;strokeWidth=1;shadow=0;" parent="WIyWlLk6GJQsqaUBKTNV-1" vertex="1">
          <mxGeometry x="329" y="50" width="170" height="70" as="geometry" />
        </mxCell>
        <mxCell id="5eM2bL5UXYDsiVkOI-E2-12" style="edgeStyle=orthogonalEdgeStyle;rounded=0;orthogonalLoop=1;jettySize=auto;html=1;exitX=0.5;exitY=1;exitDx=0;exitDy=0;" edge="1" parent="WIyWlLk6GJQsqaUBKTNV-1" source="5eM2bL5UXYDsiVkOI-E2-2" target="5eM2bL5UXYDsiVkOI-E2-3">
          <mxGeometry relative="1" as="geometry" />
        </mxCell>
        <mxCell id="5eM2bL5UXYDsiVkOI-E2-2" value="Analyse effectiveness of policies" style="rounded=1;whiteSpace=wrap;html=1;fontSize=12;glass=0;strokeWidth=1;shadow=0;" vertex="1" parent="WIyWlLk6GJQsqaUBKTNV-1">
          <mxGeometry x="329" y="160" width="170" height="70" as="geometry" />
        </mxCell>
        <mxCell id="5eM2bL5UXYDsiVkOI-E2-13" style="edgeStyle=orthogonalEdgeStyle;rounded=0;orthogonalLoop=1;jettySize=auto;html=1;exitX=0.5;exitY=1;exitDx=0;exitDy=0;entryX=0.5;entryY=0;entryDx=0;entryDy=0;" edge="1" parent="WIyWlLk6GJQsqaUBKTNV-1" source="5eM2bL5UXYDsiVkOI-E2-3" target="5eM2bL5UXYDsiVkOI-E2-4">
          <mxGeometry relative="1" as="geometry" />
        </mxCell>
        <mxCell id="5eM2bL5UXYDsiVkOI-E2-3" value="Classify policies based on effectiveness" style="rounded=1;whiteSpace=wrap;html=1;fontSize=12;glass=0;strokeWidth=1;shadow=0;" vertex="1" parent="WIyWlLk6GJQsqaUBKTNV-1">
          <mxGeometry x="329" y="260" width="170" height="70" as="geometry" />
        </mxCell>
        <mxCell id="5eM2bL5UXYDsiVkOI-E2-14" style="edgeStyle=orthogonalEdgeStyle;rounded=0;orthogonalLoop=1;jettySize=auto;html=1;exitX=0.5;exitY=1;exitDx=0;exitDy=0;" edge="1" parent="WIyWlLk6GJQsqaUBKTNV-1" source="5eM2bL5UXYDsiVkOI-E2-4" target="5eM2bL5UXYDsiVkOI-E2-5">
          <mxGeometry relative="1" as="geometry" />
        </mxCell>
        <mxCell id="5eM2bL5UXYDsiVkOI-E2-15" style="edgeStyle=orthogonalEdgeStyle;rounded=0;orthogonalLoop=1;jettySize=auto;html=1;exitX=0.5;exitY=1;exitDx=0;exitDy=0;entryX=0.5;entryY=0;entryDx=0;entryDy=0;" edge="1" parent="WIyWlLk6GJQsqaUBKTNV-1" source="5eM2bL5UXYDsiVkOI-E2-4" target="5eM2bL5UXYDsiVkOI-E2-11">
          <mxGeometry relative="1" as="geometry" />
        </mxCell>
        <mxCell id="5eM2bL5UXYDsiVkOI-E2-4" value="Generalise policies for industries" style="rounded=1;whiteSpace=wrap;html=1;fontSize=12;glass=0;strokeWidth=1;shadow=0;" vertex="1" parent="WIyWlLk6GJQsqaUBKTNV-1">
          <mxGeometry x="329" y="360" width="170" height="70" as="geometry" />
        </mxCell>
        <mxCell id="5eM2bL5UXYDsiVkOI-E2-17" style="edgeStyle=orthogonalEdgeStyle;rounded=0;orthogonalLoop=1;jettySize=auto;html=1;exitX=0.5;exitY=1;exitDx=0;exitDy=0;entryX=0.5;entryY=0;entryDx=0;entryDy=0;" edge="1" parent="WIyWlLk6GJQsqaUBKTNV-1" source="5eM2bL5UXYDsiVkOI-E2-5" target="5eM2bL5UXYDsiVkOI-E2-7">
          <mxGeometry relative="1" as="geometry" />
        </mxCell>
        <mxCell id="5eM2bL5UXYDsiVkOI-E2-5" value="Analyse compliance with ESG listing rules" style="rounded=1;whiteSpace=wrap;html=1;fontSize=12;glass=0;strokeWidth=1;shadow=0;" vertex="1" parent="WIyWlLk6GJQsqaUBKTNV-1">
          <mxGeometry x="180" y="490" width="132.5" height="70" as="geometry" />
        </mxCell>
        <mxCell id="5eM2bL5UXYDsiVkOI-E2-7" value="ESG reports for organisations on model policies to guide solutions for companies seeking new worker protection changes" style="rounded=1;whiteSpace=wrap;html=1;fontSize=12;glass=0;strokeWidth=1;shadow=0;" vertex="1" parent="WIyWlLk6GJQsqaUBKTNV-1">
          <mxGeometry x="151.88" y="610" width="188.75" height="92.5" as="geometry" />
        </mxCell>
        <mxCell id="5eM2bL5UXYDsiVkOI-E2-8" value="White Paper on Antislavery Practices for policy makers" style="rounded=1;whiteSpace=wrap;html=1;fontSize=12;glass=0;strokeWidth=1;shadow=0;" vertex="1" parent="WIyWlLk6GJQsqaUBKTNV-1">
          <mxGeometry x="520" y="610" width="170" height="70" as="geometry" />
        </mxCell>
        <mxCell id="5eM2bL5UXYDsiVkOI-E2-16" style="edgeStyle=orthogonalEdgeStyle;rounded=0;orthogonalLoop=1;jettySize=auto;html=1;exitX=0.5;exitY=1;exitDx=0;exitDy=0;entryX=0.5;entryY=0;entryDx=0;entryDy=0;" edge="1" parent="WIyWlLk6GJQsqaUBKTNV-1" source="5eM2bL5UXYDsiVkOI-E2-11" target="5eM2bL5UXYDsiVkOI-E2-8">
          <mxGeometry relative="1" as="geometry" />
        </mxCell>
        <mxCell id="5eM2bL5UXYDsiVkOI-E2-11" value="Analyse compliance with antislavery legislation" style="rounded=1;whiteSpace=wrap;html=1;fontSize=12;glass=0;strokeWidth=1;shadow=0;" vertex="1" parent="WIyWlLk6GJQsqaUBKTNV-1">
          <mxGeometry x="520" y="490" width="170" height="70" as="geometry" />
        </mxCell>
        <mxCell id="5eM2bL5UXYDsiVkOI-E2-18" value="Start" style="text;html=1;align=left;verticalAlign=middle;resizable=0;points=[];autosize=1;fontFamily=Verdana;fontSize=26;" vertex="1" parent="WIyWlLk6GJQsqaUBKTNV-1">
          <mxGeometry x="10.000000000000002" y="37.5" width="80" height="40" as="geometry" />
        </mxCell>
        <mxCell id="5eM2bL5UXYDsiVkOI-E2-19" value="Research" style="text;html=1;align=left;verticalAlign=middle;resizable=0;points=[];autosize=1;fontFamily=Verdana;fontSize=26;" vertex="1" parent="WIyWlLk6GJQsqaUBKTNV-1">
          <mxGeometry x="9.999999999999998" y="160" width="130" height="40" as="geometry" />
        </mxCell>
        <mxCell id="5eM2bL5UXYDsiVkOI-E2-20" value="Possible &lt;br&gt;Output" style="text;html=1;align=left;verticalAlign=middle;resizable=0;points=[];autosize=1;fontFamily=Verdana;fontSize=26;" vertex="1" parent="WIyWlLk6GJQsqaUBKTNV-1">
          <mxGeometry x="10" y="610" width="120" height="70" as="geometry" />
        </mxCell>
      </root>
    </mxGraphModel>
  </diagram>
</mxfile>
